<svg width="328" height="416" xmlns="http://www.w3.org/2000/svg" xmlns:xlink="http://www.w3.org/1999/xlink" xml:space="preserve" overflow="hidden"><g transform="translate(-400 -61)"><g><g><g><path d="M639.728 155.892C611.416 155.892 583.603 163.344 559.087 177.501 534.567 191.657 514.206 212.017 500.051 236.536 485.894 261.056 478.442 288.869 478.442 317.178 478.475 350.293 488.699 382.598 507.728 409.701 526.758 436.804 553.67 457.392 584.808 468.67L639.732 563.802 694.698 468.592 694.698 468.59C725.818 457.312 752.707 436.731 771.726 409.644 790.751 382.555 800.973 350.272 801.02 317.175 801.02 288.863 793.57 261.05 779.409 236.534 765.255 212.014 744.897 191.653 720.374 177.498 695.858 163.341 668.043 155.889 639.733 155.889ZM639.728 197.543C671.455 197.543 701.889 210.147 724.319 232.584 746.756 255.02 759.364 285.451 759.364 317.178 759.364 348.906 746.756 379.336 724.319 401.772 701.889 424.209 671.455 436.813 639.728 436.813 607.999 436.813 577.571 424.209 555.134 401.772 532.698 379.336 520.094 348.906 520.094 317.178 520.094 285.448 532.698 255.02 555.134 232.584 577.571 210.147 608.001 197.543 639.728 197.543Z" fill="#000000" fill-rule="nonzero" fill-opacity="1" transform="matrix(1 0 0 1.01189 -74.9331 -93.6268)"/><path d="M625.005 290.673 625.005 396.69 654.451 396.69 654.451 290.673Z" fill="#000000" fill-rule="evenodd" fill-opacity="1" transform="matrix(1 0 0 1.01189 -74.9331 -93.6268)"/><path d="M625.005 237.673 625.005 264.177 654.451 264.177 654.451 237.673Z" fill="#000000" fill-rule="evenodd" fill-opacity="1" transform="matrix(1 0 0 1.01189 -74.9331 -93.6268)"/><path d="M548.434 317.199C548.434 266.778 589.308 225.904 639.728 225.904 690.147 225.904 731.023 266.778 731.023 317.199 731.023 367.619 690.147 408.493 639.728 408.493 589.308 408.493 548.434 367.619 548.434 317.199Z" fill="#FFFFFF" fill-rule="evenodd" fill-opacity="1" transform="matrix(1 0 0 1.01189 -74.9331 -93.6268)"/><text fill="#000000" fill-opacity="1" font-family="Chalkboard SE,Chalkboard SE_MSFontService,sans-serif" font-style="normal" font-variant="normal" font-weight="700" font-stretch="normal" font-size="230" text-anchor="start" direction="ltr" writing-mode="lr-tb" unicode-bidi="normal" text-decoration="none" transform="matrix(0.666384 0 0 0.674305 493.795 278)">Hi</text></g></g></g></g></svg>